<?xml version="1.0" standalone="no"?>
<!DOCTYPE svg PUBLIC "-//W3C//DTD SVG 20010904//EN"
 "http://www.w3.org/TR/2001/REC-SVG-20010904/DTD/svg10.dtd">
<svg version="1.0" xmlns="http://www.w3.org/2000/svg"
 width="700.000000pt" height="700.000000pt" viewBox="0 0 700.000000 700.000000"
 preserveAspectRatio="xMidYMid meet">
<metadata>
Created by potrace 1.14, written by Peter Selinger 2001-2017
</metadata>
<g transform="translate(0.000000,700.000000) scale(0.100000,-0.100000)"
fill="#000000" stroke="none">
<path d="M3255 6993 c-181 -18 -252 -26 -265 -28 -8 -1 -47 -8 -87 -15 -39 -6
-77 -13 -85 -14 -7 -2 -31 -6 -53 -11 -230 -44 -508 -140 -750 -260 -310 -153
-527 -307 -761 -540 -327 -326 -556 -702 -703 -1157 -33 -103 -86 -308 -95
-370 -3 -21 -10 -57 -15 -80 -5 -24 -12 -68 -16 -98 -3 -30 -8 -66 -10 -80
-16 -99 -20 -240 -20 -625 0 -497 6 -620 41 -865 47 -330 128 -565 271 -785
165 -254 432 -463 768 -600 39 -16 72 -31 75 -33 2 -2 5 -209 6 -460 1 -251 4
-471 7 -488 34 -203 203 -395 402 -456 71 -22 238 -31 295 -16 255 68 422 249
456 496 4 26 7 191 7 367 l0 321 41 -2 c114 -6 146 -9 148 -14 0 -3 2 -147 3
-320 1 -173 5 -337 10 -365 40 -270 271 -478 546 -491 259 -13 493 145 579
389 30 84 33 139 34 480 0 169 2 307 5 308 32 6 155 13 177 10 8 -1 11 -101
11 -334 1 -351 6 -403 52 -510 129 -301 500 -432 799 -281 130 66 256 217 291
349 22 86 24 124 25 564 l1 454 30 10 c64 20 314 148 392 200 261 175 443 395
561 679 66 159 129 420 147 613 4 38 8 76 10 85 12 64 19 310 20 680 0 438 -4
545 -30 710 -3 19 -8 52 -11 74 -3 21 -7 46 -9 55 -2 9 -8 45 -15 81 -54 286
-173 610 -323 883 -43 79 -200 322 -217 337 -3 3 -35 41 -70 85 -91 113 -287
307 -408 403 -216 172 -471 322 -722 425 -109 44 -326 117 -350 117 -10 0 -21
4 -24 9 -3 5 -20 11 -38 13 -18 3 -76 15 -128 26 -147 33 -252 49 -425 68 -56
6 -533 12 -580 7z"/>
</g>
</svg>
